<mxfile host="app.diagrams.net" agent="Mozilla/5.0 (X11; Linux x86_64) AppleWebKit/537.36 (KHTML, like Gecko) Chrome/134.0.0.0 Safari/537.36" version="27.0.6">
  <diagram name="Page-1" id="kfAMMiPP0VObtHcJGvUk">
    <mxGraphModel dx="3601" dy="2061" grid="1" gridSize="10" guides="1" tooltips="1" connect="1" arrows="1" fold="1" page="1" pageScale="1" pageWidth="850" pageHeight="1100" math="0" shadow="0">
      <root>
        <object label="" id="0">
          <mxCell />
        </object>
        <mxCell id="1" parent="0" />
        <mxCell id="_scHbUb4v8V3rLatbe1g-1" value="Customer" style="shape=umlActor;verticalLabelPosition=bottom;verticalAlign=top;html=1;" parent="1" vertex="1">
          <mxGeometry x="-790" y="10" width="30" height="60" as="geometry" />
        </mxCell>
        <mxCell id="_scHbUb4v8V3rLatbe1g-2" value="Admin" style="shape=umlActor;verticalLabelPosition=bottom;verticalAlign=top;html=1;" parent="1" vertex="1">
          <mxGeometry x="-700" y="670" width="30" height="60" as="geometry" />
        </mxCell>
        <mxCell id="_scHbUb4v8V3rLatbe1g-3" value="Vending Machine" style="shape=umlActor;verticalLabelPosition=bottom;verticalAlign=top;html=1;" parent="1" vertex="1">
          <mxGeometry x="10" y="20" width="30" height="60" as="geometry" />
        </mxCell>
        <mxCell id="_scHbUb4v8V3rLatbe1g-4" value="worker" style="shape=umlActor;verticalLabelPosition=bottom;verticalAlign=top;html=1;" parent="1" vertex="1">
          <mxGeometry x="-1500" y="270" width="30" height="60" as="geometry" />
        </mxCell>
        <mxCell id="_scHbUb4v8V3rLatbe1g-9" value="" style="endArrow=open;endFill=1;endSize=12;html=1;rounded=0;" parent="1" source="_scHbUb4v8V3rLatbe1g-1" target="ytl-necwMsU3zjjI3Lu8-3" edge="1">
          <mxGeometry width="160" relative="1" as="geometry">
            <mxPoint x="-610" y="60" as="sourcePoint" />
            <mxPoint x="-595" y="95" as="targetPoint" />
          </mxGeometry>
        </mxCell>
        <mxCell id="_scHbUb4v8V3rLatbe1g-12" value="Recharge account" style="ellipse;whiteSpace=wrap;html=1;" parent="1" vertex="1">
          <mxGeometry x="-610" y="110" width="140" height="70" as="geometry" />
        </mxCell>
        <mxCell id="_scHbUb4v8V3rLatbe1g-14" value="Buy item" style="ellipse;whiteSpace=wrap;html=1;" parent="1" vertex="1">
          <mxGeometry x="-610" y="-130" width="140" height="70" as="geometry" />
        </mxCell>
        <mxCell id="_scHbUb4v8V3rLatbe1g-15" value="" style="endArrow=open;endFill=1;endSize=12;html=1;rounded=0;" parent="1" source="_scHbUb4v8V3rLatbe1g-1" target="_scHbUb4v8V3rLatbe1g-14" edge="1">
          <mxGeometry width="160" relative="1" as="geometry">
            <mxPoint x="-455" y="95" as="sourcePoint" />
            <mxPoint x="-250" y="380" as="targetPoint" />
          </mxGeometry>
        </mxCell>
        <mxCell id="_scHbUb4v8V3rLatbe1g-19" value="View Assigned tasks" style="ellipse;whiteSpace=wrap;html=1;" parent="1" vertex="1">
          <mxGeometry x="-1320" y="270" width="140" height="70" as="geometry" />
        </mxCell>
        <mxCell id="_scHbUb4v8V3rLatbe1g-20" value="" style="endArrow=open;endFill=1;endSize=12;html=1;rounded=0;" parent="1" source="_scHbUb4v8V3rLatbe1g-4" target="_scHbUb4v8V3rLatbe1g-19" edge="1">
          <mxGeometry width="160" relative="1" as="geometry">
            <mxPoint x="-1690" y="480" as="sourcePoint" />
            <mxPoint x="-1530" y="480" as="targetPoint" />
          </mxGeometry>
        </mxCell>
        <mxCell id="_scHbUb4v8V3rLatbe1g-23" value="View task details" style="ellipse;whiteSpace=wrap;html=1;" parent="1" vertex="1">
          <mxGeometry x="-1320" y="160" width="140" height="70" as="geometry" />
        </mxCell>
        <mxCell id="_scHbUb4v8V3rLatbe1g-25" value="Report task completion" style="ellipse;whiteSpace=wrap;html=1;" parent="1" vertex="1">
          <mxGeometry x="-1320" y="390" width="140" height="70" as="geometry" />
        </mxCell>
        <mxCell id="_scHbUb4v8V3rLatbe1g-26" value="" style="endArrow=open;endFill=1;endSize=12;html=1;rounded=0;" parent="1" source="_scHbUb4v8V3rLatbe1g-4" target="_scHbUb4v8V3rLatbe1g-25" edge="1">
          <mxGeometry width="160" relative="1" as="geometry">
            <mxPoint x="-1690" y="480" as="sourcePoint" />
            <mxPoint x="-1530" y="480" as="targetPoint" />
          </mxGeometry>
        </mxCell>
        <mxCell id="_scHbUb4v8V3rLatbe1g-31" value="Add worker" style="ellipse;whiteSpace=wrap;html=1;" parent="1" vertex="1">
          <mxGeometry x="-1130" y="810" width="140" height="70" as="geometry" />
        </mxCell>
        <mxCell id="_scHbUb4v8V3rLatbe1g-32" value="Manage Vending Machines CRUD" style="ellipse;whiteSpace=wrap;html=1;" parent="1" vertex="1">
          <mxGeometry x="-630" y="500" width="140" height="70" as="geometry" />
        </mxCell>
        <mxCell id="_scHbUb4v8V3rLatbe1g-33" value="Update Vending machine details" style="ellipse;whiteSpace=wrap;html=1;" parent="1" vertex="1">
          <mxGeometry x="-550" y="340" width="140" height="70" as="geometry" />
        </mxCell>
        <mxCell id="_scHbUb4v8V3rLatbe1g-34" value="View/Search item&amp;nbsp;" style="ellipse;whiteSpace=wrap;html=1;" parent="1" vertex="1">
          <mxGeometry x="-350" y="610" width="140" height="70" as="geometry" />
        </mxCell>
        <mxCell id="_scHbUb4v8V3rLatbe1g-35" value="Add Vending machine" style="ellipse;whiteSpace=wrap;html=1;" parent="1" vertex="1">
          <mxGeometry x="-720" y="360" width="140" height="70" as="geometry" />
        </mxCell>
        <mxCell id="_scHbUb4v8V3rLatbe1g-36" value="Update User Details" style="ellipse;whiteSpace=wrap;html=1;" parent="1" vertex="1">
          <mxGeometry x="-850" y="940" width="140" height="70" as="geometry" />
        </mxCell>
        <mxCell id="_scHbUb4v8V3rLatbe1g-37" value="Remove Vending machine" style="ellipse;whiteSpace=wrap;html=1;" parent="1" vertex="1">
          <mxGeometry x="-440" y="410" width="140" height="70" as="geometry" />
        </mxCell>
        <mxCell id="_scHbUb4v8V3rLatbe1g-38" value="" style="endArrow=open;endFill=1;endSize=12;html=1;rounded=0;dashed=1;" parent="1" source="_scHbUb4v8V3rLatbe1g-32" target="_scHbUb4v8V3rLatbe1g-33" edge="1">
          <mxGeometry width="160" relative="1" as="geometry">
            <mxPoint x="305" y="440" as="sourcePoint" />
            <mxPoint x="465" y="440" as="targetPoint" />
          </mxGeometry>
        </mxCell>
        <mxCell id="_scHbUb4v8V3rLatbe1g-39" value="&amp;lt;&amp;lt;include&amp;gt;&amp;gt;" style="edgeLabel;html=1;align=center;verticalAlign=middle;resizable=0;points=[];" parent="_scHbUb4v8V3rLatbe1g-38" vertex="1" connectable="0">
          <mxGeometry x="-0.1992" relative="1" as="geometry">
            <mxPoint y="-1" as="offset" />
          </mxGeometry>
        </mxCell>
        <mxCell id="_scHbUb4v8V3rLatbe1g-40" value="" style="endArrow=open;endFill=1;endSize=12;html=1;rounded=0;" parent="1" source="_scHbUb4v8V3rLatbe1g-2" target="_scHbUb4v8V3rLatbe1g-32" edge="1">
          <mxGeometry width="160" relative="1" as="geometry">
            <mxPoint x="415" y="500" as="sourcePoint" />
            <mxPoint x="575" y="500" as="targetPoint" />
          </mxGeometry>
        </mxCell>
        <mxCell id="_scHbUb4v8V3rLatbe1g-43" value="&lt;div&gt;Manage Items CRUD&lt;/div&gt;" style="ellipse;whiteSpace=wrap;html=1;" parent="1" vertex="1">
          <mxGeometry x="-550" y="690" width="140" height="70" as="geometry" />
        </mxCell>
        <mxCell id="_scHbUb4v8V3rLatbe1g-44" value="" style="endArrow=open;endFill=1;endSize=12;html=1;rounded=0;" parent="1" source="_scHbUb4v8V3rLatbe1g-2" target="_scHbUb4v8V3rLatbe1g-43" edge="1">
          <mxGeometry width="160" relative="1" as="geometry">
            <mxPoint x="415" y="500" as="sourcePoint" />
            <mxPoint x="575" y="500" as="targetPoint" />
          </mxGeometry>
        </mxCell>
        <mxCell id="_scHbUb4v8V3rLatbe1g-45" value="" style="endArrow=open;endFill=1;endSize=12;html=1;rounded=0;dashed=1;" parent="1" source="_scHbUb4v8V3rLatbe1g-43" target="_scHbUb4v8V3rLatbe1g-34" edge="1">
          <mxGeometry width="160" relative="1" as="geometry">
            <mxPoint x="275" y="450" as="sourcePoint" />
            <mxPoint x="435" y="450" as="targetPoint" />
          </mxGeometry>
        </mxCell>
        <mxCell id="_scHbUb4v8V3rLatbe1g-46" value="&amp;lt;&amp;lt;include&amp;gt;&amp;gt;" style="edgeLabel;html=1;align=center;verticalAlign=middle;resizable=0;points=[];" parent="_scHbUb4v8V3rLatbe1g-45" vertex="1" connectable="0">
          <mxGeometry x="0.0995" relative="1" as="geometry">
            <mxPoint as="offset" />
          </mxGeometry>
        </mxCell>
        <mxCell id="_scHbUb4v8V3rLatbe1g-47" value="Add item&amp;nbsp;" style="ellipse;whiteSpace=wrap;html=1;" parent="1" vertex="1">
          <mxGeometry x="-300" y="720" width="140" height="70" as="geometry" />
        </mxCell>
        <mxCell id="_scHbUb4v8V3rLatbe1g-48" value="Remove item&amp;nbsp;" style="ellipse;whiteSpace=wrap;html=1;" parent="1" vertex="1">
          <mxGeometry x="-350" y="810" width="140" height="70" as="geometry" />
        </mxCell>
        <mxCell id="_scHbUb4v8V3rLatbe1g-49" value="" style="endArrow=open;endFill=1;endSize=12;html=1;rounded=0;dashed=1;" parent="1" source="_scHbUb4v8V3rLatbe1g-32" target="_scHbUb4v8V3rLatbe1g-35" edge="1">
          <mxGeometry width="160" relative="1" as="geometry">
            <mxPoint x="305" y="610" as="sourcePoint" />
            <mxPoint x="465" y="610" as="targetPoint" />
          </mxGeometry>
        </mxCell>
        <mxCell id="_scHbUb4v8V3rLatbe1g-50" value="&amp;lt;&amp;lt;include&amp;gt;&amp;gt;" style="edgeLabel;html=1;align=center;verticalAlign=middle;resizable=0;points=[];" parent="_scHbUb4v8V3rLatbe1g-49" vertex="1" connectable="0">
          <mxGeometry x="0.147" y="-2" relative="1" as="geometry">
            <mxPoint as="offset" />
          </mxGeometry>
        </mxCell>
        <mxCell id="_scHbUb4v8V3rLatbe1g-51" value="" style="endArrow=open;endFill=1;endSize=12;html=1;rounded=0;dashed=1;" parent="1" source="_scHbUb4v8V3rLatbe1g-32" target="_scHbUb4v8V3rLatbe1g-37" edge="1">
          <mxGeometry width="160" relative="1" as="geometry">
            <mxPoint x="305" y="610" as="sourcePoint" />
            <mxPoint x="465" y="610" as="targetPoint" />
          </mxGeometry>
        </mxCell>
        <mxCell id="_scHbUb4v8V3rLatbe1g-52" value="&amp;lt;&amp;lt;include&amp;gt;&amp;gt;" style="edgeLabel;html=1;align=center;verticalAlign=middle;resizable=0;points=[];" parent="_scHbUb4v8V3rLatbe1g-51" vertex="1" connectable="0">
          <mxGeometry x="-0.2593" y="-1" relative="1" as="geometry">
            <mxPoint y="1" as="offset" />
          </mxGeometry>
        </mxCell>
        <mxCell id="_scHbUb4v8V3rLatbe1g-53" value="" style="endArrow=open;endFill=1;endSize=12;html=1;rounded=0;dashed=1;" parent="1" source="_scHbUb4v8V3rLatbe1g-43" target="_scHbUb4v8V3rLatbe1g-47" edge="1">
          <mxGeometry width="160" relative="1" as="geometry">
            <mxPoint x="275" y="620" as="sourcePoint" />
            <mxPoint x="332.6969644598976" y="670.955655443197" as="targetPoint" />
          </mxGeometry>
        </mxCell>
        <mxCell id="_scHbUb4v8V3rLatbe1g-54" value="&amp;lt;&amp;lt;include&amp;gt;&amp;gt;" style="edgeLabel;html=1;align=center;verticalAlign=middle;resizable=0;points=[];" parent="_scHbUb4v8V3rLatbe1g-53" vertex="1" connectable="0">
          <mxGeometry x="-0.0762" y="1" relative="1" as="geometry">
            <mxPoint x="-1" y="-1" as="offset" />
          </mxGeometry>
        </mxCell>
        <mxCell id="_scHbUb4v8V3rLatbe1g-55" value="" style="endArrow=open;endFill=1;endSize=12;html=1;rounded=0;dashed=1;" parent="1" source="_scHbUb4v8V3rLatbe1g-43" target="_scHbUb4v8V3rLatbe1g-48" edge="1">
          <mxGeometry width="160" relative="1" as="geometry">
            <mxPoint x="275" y="620" as="sourcePoint" />
            <mxPoint x="435" y="620" as="targetPoint" />
          </mxGeometry>
        </mxCell>
        <mxCell id="_scHbUb4v8V3rLatbe1g-56" value="&amp;lt;&amp;lt;include&amp;gt;&amp;gt;" style="edgeLabel;html=1;align=center;verticalAlign=middle;resizable=0;points=[];" parent="_scHbUb4v8V3rLatbe1g-55" vertex="1" connectable="0">
          <mxGeometry x="-0.3152" relative="1" as="geometry">
            <mxPoint as="offset" />
          </mxGeometry>
        </mxCell>
        <mxCell id="_scHbUb4v8V3rLatbe1g-57" value="" style="endArrow=open;endFill=1;endSize=12;html=1;rounded=0;dashed=1;" parent="1" source="ytl-necwMsU3zjjI3Lu8-12" target="_scHbUb4v8V3rLatbe1g-36" edge="1">
          <mxGeometry width="160" relative="1" as="geometry">
            <mxPoint x="245" y="640" as="sourcePoint" />
            <mxPoint x="405" y="640" as="targetPoint" />
          </mxGeometry>
        </mxCell>
        <mxCell id="ytl-necwMsU3zjjI3Lu8-23" value="&amp;lt;&amp;lt;include&amp;gt;&amp;gt;" style="edgeLabel;html=1;align=center;verticalAlign=middle;resizable=0;points=[];" parent="_scHbUb4v8V3rLatbe1g-57" vertex="1" connectable="0">
          <mxGeometry x="0.3756" y="4" relative="1" as="geometry">
            <mxPoint x="1" as="offset" />
          </mxGeometry>
        </mxCell>
        <mxCell id="_scHbUb4v8V3rLatbe1g-58" value="" style="endArrow=open;endFill=1;endSize=12;html=1;rounded=0;dashed=1;" parent="1" source="ytl-necwMsU3zjjI3Lu8-12" target="_scHbUb4v8V3rLatbe1g-31" edge="1">
          <mxGeometry width="160" relative="1" as="geometry">
            <mxPoint x="245" y="640" as="sourcePoint" />
            <mxPoint x="405" y="640" as="targetPoint" />
          </mxGeometry>
        </mxCell>
        <mxCell id="ytl-necwMsU3zjjI3Lu8-22" value="&amp;lt;&amp;lt;include&amp;gt;&amp;gt;" style="edgeLabel;html=1;align=center;verticalAlign=middle;resizable=0;points=[];" parent="_scHbUb4v8V3rLatbe1g-58" vertex="1" connectable="0">
          <mxGeometry x="-0.2108" y="3" relative="1" as="geometry">
            <mxPoint y="1" as="offset" />
          </mxGeometry>
        </mxCell>
        <mxCell id="_scHbUb4v8V3rLatbe1g-61" value="Accept connection request" style="ellipse;whiteSpace=wrap;html=1;" parent="1" vertex="1">
          <mxGeometry x="130" y="80" width="140" height="70" as="geometry" />
        </mxCell>
        <mxCell id="_scHbUb4v8V3rLatbe1g-62" value="" style="endArrow=open;endFill=1;endSize=12;html=1;rounded=0;" parent="1" source="_scHbUb4v8V3rLatbe1g-3" target="_scHbUb4v8V3rLatbe1g-61" edge="1">
          <mxGeometry width="160" relative="1" as="geometry">
            <mxPoint x="-830" y="-345" as="sourcePoint" />
            <mxPoint x="-670" y="-345" as="targetPoint" />
          </mxGeometry>
        </mxCell>
        <mxCell id="_scHbUb4v8V3rLatbe1g-63" value="Deploy item" style="ellipse;whiteSpace=wrap;html=1;" parent="1" vertex="1">
          <mxGeometry x="10" y="-130" width="140" height="70" as="geometry" />
        </mxCell>
        <mxCell id="_scHbUb4v8V3rLatbe1g-65" value="" style="endArrow=open;endFill=1;endSize=12;html=1;rounded=0;" parent="1" source="_scHbUb4v8V3rLatbe1g-3" target="_scHbUb4v8V3rLatbe1g-63" edge="1">
          <mxGeometry width="160" relative="1" as="geometry">
            <mxPoint x="-33.190860161124874" y="-193.9759209509166" as="sourcePoint" />
            <mxPoint x="-670" y="-345" as="targetPoint" />
          </mxGeometry>
        </mxCell>
        <mxCell id="_scHbUb4v8V3rLatbe1g-73" value="Report Status/Issue" style="ellipse;whiteSpace=wrap;html=1;" parent="1" vertex="1">
          <mxGeometry x="10" y="170" width="140" height="70" as="geometry" />
        </mxCell>
        <mxCell id="_scHbUb4v8V3rLatbe1g-79" value="Run Self-diagnostic" style="ellipse;whiteSpace=wrap;html=1;" parent="1" vertex="1">
          <mxGeometry x="130" y="-40" width="140" height="70" as="geometry" />
        </mxCell>
        <mxCell id="_scHbUb4v8V3rLatbe1g-81" value="" style="endArrow=open;endFill=1;endSize=12;html=1;rounded=0;" parent="1" source="_scHbUb4v8V3rLatbe1g-3" target="_scHbUb4v8V3rLatbe1g-79" edge="1">
          <mxGeometry width="160" relative="1" as="geometry">
            <mxPoint x="-830" y="-345" as="sourcePoint" />
            <mxPoint x="-670" y="-345" as="targetPoint" />
          </mxGeometry>
        </mxCell>
        <mxCell id="_scHbUb4v8V3rLatbe1g-82" value="" style="endArrow=open;endFill=1;endSize=12;html=1;rounded=0;" parent="1" source="_scHbUb4v8V3rLatbe1g-3" target="_scHbUb4v8V3rLatbe1g-73" edge="1">
          <mxGeometry width="160" relative="1" as="geometry">
            <mxPoint x="-830" y="-345" as="sourcePoint" />
            <mxPoint x="-670" y="-345" as="targetPoint" />
          </mxGeometry>
        </mxCell>
        <mxCell id="ytl-necwMsU3zjjI3Lu8-2" value="User" style="shape=umlActor;verticalLabelPosition=bottom;verticalAlign=top;html=1;outlineConnect=0;" parent="1" vertex="1">
          <mxGeometry x="-1330" y="-40" width="30" height="50" as="geometry" />
        </mxCell>
        <mxCell id="ytl-necwMsU3zjjI3Lu8-3" value="Connect to Vending Machine" style="ellipse;whiteSpace=wrap;html=1;" parent="1" vertex="1">
          <mxGeometry x="-610" width="140" height="70" as="geometry" />
        </mxCell>
        <mxCell id="ytl-necwMsU3zjjI3Lu8-4" value="Sign-Up" style="ellipse;whiteSpace=wrap;html=1;" parent="1" vertex="1">
          <mxGeometry x="-1170" y="20" width="140" height="70" as="geometry" />
        </mxCell>
        <mxCell id="ytl-necwMsU3zjjI3Lu8-5" value="Login" style="ellipse;whiteSpace=wrap;html=1;" parent="1" vertex="1">
          <mxGeometry x="-1160" y="-95" width="140" height="70" as="geometry" />
        </mxCell>
        <mxCell id="ytl-necwMsU3zjjI3Lu8-6" value="" style="endArrow=open;endFill=1;endSize=12;html=1;rounded=0;" parent="1" source="ytl-necwMsU3zjjI3Lu8-2" target="ytl-necwMsU3zjjI3Lu8-4" edge="1">
          <mxGeometry width="160" relative="1" as="geometry">
            <mxPoint x="-260" y="365" as="sourcePoint" />
            <mxPoint x="-100" y="365" as="targetPoint" />
          </mxGeometry>
        </mxCell>
        <mxCell id="ytl-necwMsU3zjjI3Lu8-7" value="" style="endArrow=open;endFill=1;endSize=12;html=1;rounded=0;" parent="1" source="ytl-necwMsU3zjjI3Lu8-2" target="ytl-necwMsU3zjjI3Lu8-5" edge="1">
          <mxGeometry width="160" relative="1" as="geometry">
            <mxPoint x="-260" y="365" as="sourcePoint" />
            <mxPoint x="-100" y="365" as="targetPoint" />
          </mxGeometry>
        </mxCell>
        <mxCell id="ytl-necwMsU3zjjI3Lu8-12" value="&amp;lt;&amp;lt;summary&amp;gt;&amp;gt;&lt;br&gt;Manage User CRUD" style="ellipse;whiteSpace=wrap;html=1;" parent="1" vertex="1">
          <mxGeometry x="-860" y="760" width="140" height="70" as="geometry" />
        </mxCell>
        <mxCell id="ytl-necwMsU3zjjI3Lu8-24" value="Remove User" style="ellipse;whiteSpace=wrap;html=1;" parent="1" vertex="1">
          <mxGeometry x="-1050" y="910" width="140" height="70" as="geometry" />
        </mxCell>
        <mxCell id="ytl-necwMsU3zjjI3Lu8-25" value="&amp;lt;&amp;lt;include&amp;gt;&amp;gt;" style="endArrow=open;endSize=12;dashed=1;html=1;rounded=0;" parent="1" source="ytl-necwMsU3zjjI3Lu8-12" target="ytl-necwMsU3zjjI3Lu8-24" edge="1">
          <mxGeometry width="160" relative="1" as="geometry">
            <mxPoint x="-340" y="520" as="sourcePoint" />
            <mxPoint x="-180" y="520" as="targetPoint" />
          </mxGeometry>
        </mxCell>
        <mxCell id="ytl-necwMsU3zjjI3Lu8-28" value="" style="endArrow=open;endFill=1;endSize=12;html=1;rounded=0;" parent="1" source="_scHbUb4v8V3rLatbe1g-2" target="ytl-necwMsU3zjjI3Lu8-12" edge="1">
          <mxGeometry width="160" relative="1" as="geometry">
            <mxPoint x="-170" y="550" as="sourcePoint" />
            <mxPoint x="-10" y="550" as="targetPoint" />
          </mxGeometry>
        </mxCell>
        <mxCell id="ytl-necwMsU3zjjI3Lu8-33" value="" style="endArrow=open;endFill=1;endSize=12;html=1;rounded=0;" parent="1" source="_scHbUb4v8V3rLatbe1g-1" target="_scHbUb4v8V3rLatbe1g-12" edge="1">
          <mxGeometry width="160" relative="1" as="geometry">
            <mxPoint x="-730" y="350" as="sourcePoint" />
            <mxPoint x="-570" y="350" as="targetPoint" />
          </mxGeometry>
        </mxCell>
        <mxCell id="ytl-necwMsU3zjjI3Lu8-34" value="&amp;lt;&amp;lt;include&amp;gt;&amp;gt;" style="endArrow=open;endFill=1;endSize=12;html=1;rounded=0;dashed=1;" parent="1" source="_scHbUb4v8V3rLatbe1g-14" target="ytl-necwMsU3zjjI3Lu8-3" edge="1">
          <mxGeometry width="160" relative="1" as="geometry">
            <mxPoint x="-730" y="350" as="sourcePoint" />
            <mxPoint x="-570" y="350" as="targetPoint" />
          </mxGeometry>
        </mxCell>
        <mxCell id="mYpOT3v5wffNOWk1pQbh-1" value="" style="endArrow=open;endFill=1;endSize=12;html=1;rounded=0;" parent="1" source="_scHbUb4v8V3rLatbe1g-4" target="_scHbUb4v8V3rLatbe1g-23" edge="1">
          <mxGeometry width="160" relative="1" as="geometry">
            <mxPoint x="-650" y="330" as="sourcePoint" />
            <mxPoint x="-490" y="330" as="targetPoint" />
          </mxGeometry>
        </mxCell>
        <mxCell id="mYpOT3v5wffNOWk1pQbh-3" value="View/search Vending machine" style="ellipse;whiteSpace=wrap;html=1;" parent="1" vertex="1">
          <mxGeometry x="-380" y="500" width="140" height="70" as="geometry" />
        </mxCell>
        <mxCell id="mYpOT3v5wffNOWk1pQbh-4" value="&amp;lt;&amp;lt;include&amp;gt;&amp;gt;" style="endArrow=open;endFill=1;endSize=12;html=1;rounded=0;dashed=1;" parent="1" source="_scHbUb4v8V3rLatbe1g-32" target="mYpOT3v5wffNOWk1pQbh-3" edge="1">
          <mxGeometry width="160" relative="1" as="geometry">
            <mxPoint x="-680" y="520" as="sourcePoint" />
            <mxPoint x="-520" y="520" as="targetPoint" />
          </mxGeometry>
        </mxCell>
        <mxCell id="mYpOT3v5wffNOWk1pQbh-5" value="Update item" style="ellipse;whiteSpace=wrap;html=1;" parent="1" vertex="1">
          <mxGeometry x="-510" y="840" width="140" height="70" as="geometry" />
        </mxCell>
        <mxCell id="mYpOT3v5wffNOWk1pQbh-6" value="&amp;lt;&amp;lt;include&amp;gt;&amp;gt;" style="endArrow=open;endFill=1;endSize=12;html=1;rounded=0;dashed=1;" parent="1" source="_scHbUb4v8V3rLatbe1g-43" target="mYpOT3v5wffNOWk1pQbh-5" edge="1">
          <mxGeometry width="160" relative="1" as="geometry">
            <mxPoint x="-710" y="530" as="sourcePoint" />
            <mxPoint x="-550" y="530" as="targetPoint" />
          </mxGeometry>
        </mxCell>
        <mxCell id="mYpOT3v5wffNOWk1pQbh-7" value="View/Search User" style="ellipse;whiteSpace=wrap;html=1;" parent="1" vertex="1">
          <mxGeometry x="-680" y="890" width="140" height="70" as="geometry" />
        </mxCell>
        <mxCell id="mYpOT3v5wffNOWk1pQbh-8" value="&amp;lt;&amp;lt;include&amp;gt;&amp;gt;" style="endArrow=open;endFill=1;endSize=12;html=1;rounded=0;dashed=1;" parent="1" source="ytl-necwMsU3zjjI3Lu8-12" target="mYpOT3v5wffNOWk1pQbh-7" edge="1">
          <mxGeometry width="160" relative="1" as="geometry">
            <mxPoint x="-570" y="550" as="sourcePoint" />
            <mxPoint x="-410" y="550" as="targetPoint" />
          </mxGeometry>
        </mxCell>
        <mxCell id="mYpOT3v5wffNOWk1pQbh-10" value="View sales analytics" style="ellipse;whiteSpace=wrap;html=1;" parent="1" vertex="1">
          <mxGeometry x="-940" y="500" width="140" height="70" as="geometry" />
        </mxCell>
        <mxCell id="mYpOT3v5wffNOWk1pQbh-11" value="View Machine performance analytics" style="ellipse;whiteSpace=wrap;html=1;" parent="1" vertex="1">
          <mxGeometry x="-980" y="620" width="140" height="70" as="geometry" />
        </mxCell>
        <mxCell id="mYpOT3v5wffNOWk1pQbh-12" value="" style="endArrow=open;endFill=1;endSize=12;html=1;rounded=0;" parent="1" source="_scHbUb4v8V3rLatbe1g-2" target="mYpOT3v5wffNOWk1pQbh-10" edge="1">
          <mxGeometry width="160" relative="1" as="geometry">
            <mxPoint x="-570" y="580" as="sourcePoint" />
            <mxPoint x="-410" y="580" as="targetPoint" />
          </mxGeometry>
        </mxCell>
        <mxCell id="mYpOT3v5wffNOWk1pQbh-13" value="" style="endArrow=open;endFill=1;endSize=12;html=1;rounded=0;" parent="1" source="_scHbUb4v8V3rLatbe1g-2" target="mYpOT3v5wffNOWk1pQbh-11" edge="1">
          <mxGeometry width="160" relative="1" as="geometry">
            <mxPoint x="-570" y="580" as="sourcePoint" />
            <mxPoint x="-410" y="580" as="targetPoint" />
          </mxGeometry>
        </mxCell>
      </root>
    </mxGraphModel>
  </diagram>
</mxfile>
